<?xml version="1.0" encoding="utf-8"?>
<!-- Generator: Adobe Illustrator 27.7.0, SVG Export Plug-In . SVG Version: 6.00 Build 0)  -->
<svg version="1.1" id="Layer_1" xmlns="http://www.w3.org/2000/svg" xmlns:xlink="http://www.w3.org/1999/xlink" x="0px" y="0px"
	 viewBox="0 0 320 5112.4" style="enable-background:new 0 0 320 5112.4;" xml:space="preserve">
<style type="text/css">
	.st0{fill:#02A2A4;}
	.st1{fill:#ED7113;}
	.st2{fill:#F2BB05;}
	.st3{fill:#3C6AB1;}
</style>
<polygon class="st0" points="205.4,0 0.2,0 0,0.2 0,205.4 "/>
<polygon class="st1" points="320,5012.6 220.5,5112.1 320,5112.1 "/>
<polygon class="st2" points="320,5012.5 320,4807.3 15.2,5112.1 220.4,5112.1 "/>
<polygon class="st1" points="320,4397.7 320,4192.5 0,4512.5 0,4717.7 "/>
<polygon class="st3" points="320,4602.7 320,4397.5 0,4717.5 0,4922.7 "/>
<polygon class="st0" points="15,5112.2 320,4807.2 320,4602 0,4922 0,5112.2 "/>
<polygon class="st2" points="320,4192.7 320,3987.5 0,4307.5 0,4512.7 "/>
<polygon class="st3" points="320,3782.5 320,3577.3 0,3897.3 0,4102.5 "/>
<polygon class="st0" points="320,3987.7 320,3782.5 0,4102.5 0,4307.7 "/>
<polygon class="st1" points="320,3577.6 320,3372.4 0,3692.4 0,3897.6 "/>
<polygon class="st0" points="320,3167.5 320,2962.3 0,3282.3 0,3487.5 "/>
<polygon class="st3" points="320,2962.1 320,2756.9 0,3076.9 0,3282.1 "/>
<polygon class="st1" points="320,2756.9 320,2551.7 0,2871.7 0,3076.9 "/>
<polygon class="st0" points="320,2346.5 320,2141.3 0,2461.3 0,2666.5 "/>
<polygon class="st3" points="320,2141 320,1935.8 0,2255.8 0,2461 "/>
<polygon class="st2" points="320,3372.7 320,3167.5 0,3487.5 0,3692.7 "/>
<polygon class="st2" points="320,2551.7 320,2346.5 0,2666.5 0,2871.7 "/>
<polygon class="st1" points="320,1935.8 320,1730.6 0,2050.6 0,2255.8 "/>
<polygon class="st2" points="320,1730.6 320,1525.4 0,1845.4 0,2050.6 "/>
<polygon class="st0" points="320,1526 320,1320.8 0,1640.8 0,1846 "/>
<polygon class="st3" points="320,1320.8 320,1115.6 0,1435.6 0,1640.8 "/>
<polygon class="st1" points="320,1116 320,910.8 0,1230.8 0,1436 "/>
<polygon class="st2" points="320,911.2 320,706 0,1026 0,1231.2 "/>
<polygon class="st0" points="320,706.2 320,501 0,821 0,1026.2 "/>
<polygon class="st3" points="320,500.9 320,295.7 0,615.7 0,820.9 "/>
<polygon class="st1" points="320,295.7 320,90.5 0,410.5 0,615.7 "/>
<polygon class="st2" points="320,90.7 320,-0.1 205.6,-0.1 0,205.5 0,410.7 "/>
</svg>
